<?xml version="1.0" encoding="UTF-8"?>
<svg version="1.1" xmlns="http://www.w3.org/2000/svg" width="606" height="302">
<path d="M0 0 C199.98 0 399.96 0 606 0 C606 99.66 606 199.32 606 302 C406.02 302 206.04 302 0 302 C0 202.34 0 102.68 0 0 Z " fill="#FBBAC6" transform="translate(0,0)"/>
<path d="M0 0 C1.07830078 0.00322266 2.15660156 0.00644531 3.26757812 0.00976562 C4.31107422 -0.00634766 5.35457031 -0.02246094 6.4296875 -0.0390625 C15.96261113 -0.0449799 25.42490387 0.86039697 32.52539062 7.79101562 C35.77869492 11.60926498 36.23489057 15.30842913 36.07617188 20.27539062 C35.45199512 25.46695604 33.35565483 29.00534453 29.58007812 32.44726562 C26.56586434 34.98526739 26.56586434 34.98526739 26.64257812 38.00976562 C28.9307421 42.4656639 33.39456614 43.57336409 37.83007812 45.32226562 C37.85694365 47.3013596 37.87641188 49.28055533 37.89257812 51.25976562 C37.90417969 52.36191406 37.91578125 53.4640625 37.92773438 54.59960938 C37.83007812 57.32226562 37.83007812 57.32226562 36.83007812 58.32226562 C30.27707299 59.15881947 25.17213671 57.14179351 19.83007812 53.32226562 C16.42085464 49.38800772 14.10845035 44.97394224 11.83007812 40.32226562 C10.18007813 40.32226562 8.53007812 40.32226562 6.83007812 40.32226562 C6.78109375 41.381875 6.73210937 42.44148438 6.68164062 43.53320312 C6.60661103 44.9212506 6.53106328 46.30927013 6.45507812 47.69726562 C6.40867187 48.74527344 6.40867187 48.74527344 6.36132812 49.81445312 C6.05664062 55.09570312 6.05664062 55.09570312 3.83007812 57.32226562 C1.08007812 57.58789062 1.08007812 57.58789062 -2.16992188 57.57226562 C-3.77867187 57.58 -3.77867187 57.58 -5.41992188 57.58789062 C-8.16992188 57.32226562 -8.16992188 57.32226562 -10.16992188 55.32226562 C-10.42388916 53.08312988 -10.42388916 53.08312988 -10.42871094 50.26171875 C-10.43816742 48.67997864 -10.43816742 48.67997864 -10.44781494 47.06628418 C-10.44376648 45.92357056 -10.43971802 44.78085693 -10.43554688 43.60351562 C-10.43746033 42.43469849 -10.43937378 41.26588135 -10.44134521 40.06164551 C-10.44270813 37.5868305 -10.43900429 35.11200836 -10.43066406 32.63720703 C-10.41996633 28.83805358 -10.43055606 25.03937303 -10.44335938 21.24023438 C-10.4420378 18.84049374 -10.43947545 16.44075341 -10.43554688 14.04101562 C-10.43959534 12.898302 -10.4436438 11.75558838 -10.44781494 10.57824707 C-10.44151062 9.52375366 -10.4352063 8.46926025 -10.42871094 7.3828125 C-10.42711975 6.45174683 -10.42552856 5.52068115 -10.42388916 4.56140137 C-9.76772231 -1.22377938 -4.5324642 0.03129762 0 0 Z " fill="#532079" transform="translate(342.169921875,87.677734375)"/>
<path d="M0 0 C0.9296875 1.796875 0.9296875 1.796875 1 4 C0.03515625 6.73828125 0.03515625 6.73828125 -2 9 C-4.73526598 9.32628033 -6.8643404 9.38915999 -9.5625 9.1875 C-12.05858837 9.04426257 -14.49513686 8.98548747 -17 9 C-19.28728734 10.83883881 -19.28728734 10.83883881 -19.125 13.625 C-19.08375 14.40875 -19.0425 15.1925 -19 16 C-18.28585937 16.27585937 -17.57171875 16.55171875 -16.8359375 16.8359375 C-8.7314189 20.16258563 -0.41620289 24.0537402 4 32 C5.39187784 37.51918226 4.02552433 42.42408242 1.25 47.28125 C-2.77657218 52.81778674 -9.54751692 54.76018207 -16 56 C-22.64812547 56.55048173 -28.73367367 56.36727884 -35 54 C-35.33 53.67 -35.66 53.34 -36 53 C-35.30232558 46.60465116 -35.30232558 46.60465116 -34 44 C-32.89140625 44.02320313 -31.7828125 44.04640625 -30.640625 44.0703125 C-29.17709008 44.08907577 -27.71354786 44.10727537 -26.25 44.125 C-25.15558594 44.15013672 -25.15558594 44.15013672 -24.0390625 44.17578125 C-20.1955376 44.21072239 -17.25393228 44.17499684 -14 42 C-13.49758678 39.6704053 -13.49758678 39.6704053 -14 37 C-17.13355672 34.41481571 -20.42601771 32.7733889 -24.0625 31 C-29.32903314 28.41698661 -33.69649093 25.57691671 -36 20 C-36.68110084 15.04125366 -36.59725082 11.21747283 -34.375 6.6875 C-25.85697118 -2.95132208 -11.8343833 -7.3758482 0 0 Z " fill="#542179" transform="translate(422,90)"/>
<path d="M0 0 C1.21880859 -0.020625 2.43761719 -0.04125 3.69335938 -0.0625 C4.86833984 -0.06765625 6.04332031 -0.0728125 7.25390625 -0.078125 C8.85407593 -0.09214355 8.85407593 -0.09214355 10.48657227 -0.10644531 C13.85459024 0.30038072 15.72300933 1.24847047 18.4375 3.25 C20.30931618 6.99363237 19.75178147 11.44192006 19.8125 15.5625 C19.86857422 16.98852539 19.86857422 16.98852539 19.92578125 18.44335938 C20.01433197 25.48314145 20.01433197 25.48314145 17.1015625 29.35546875 C11.52442981 33.3216115 5.23242738 32.50751271 -1.33154297 32.54516602 C-2.73203631 32.55669338 -4.13248545 32.5771577 -5.53271484 32.60668945 C-7.56117458 32.64945674 -9.5883324 32.66554464 -11.6171875 32.67578125 C-12.82874512 32.69036377 -14.04030273 32.70494629 -15.28857422 32.7199707 C-19.19404092 32.15934256 -20.81740832 31.03697023 -23.5625 28.25 C-24.94134724 24.11345828 -24.86591476 20.20916089 -24.9375 15.875 C-24.97488281 15.02421875 -25.01226562 14.1734375 -25.05078125 13.296875 C-25.11194918 8.93356283 -24.99469965 6.86136606 -22.4140625 3.2109375 C-16.06099154 -1.15788664 -7.42940779 0.03153064 0 0 Z " fill="#58247B" transform="translate(222.5625,176.75)"/>
<path d="M0 0 C4.0707992 3.42317205 6.71261246 6.42078774 7.30859375 11.76953125 C7.35113281 12.77371094 7.39367187 13.77789062 7.4375 14.8125 C7.92148661 21.56370312 8.93915685 25.7953771 13.6875 30.875 C16.41040848 34.55460605 16.55875222 36.51753351 16.56640625 40.94921875 C15.75656241 43.88141197 14.62888317 44.48982422 12 46 C9.42641506 46.29211879 7.10176533 46.42110525 4.53125 46.3984375 C3.813927 46.40130768 3.096604 46.40417786 2.35754395 46.40713501 C0.84463713 46.40917169 -0.66829626 46.40366944 -2.18115234 46.39111328 C-4.49246284 46.37505237 -6.80202492 46.39097366 -9.11328125 46.41015625 C-10.58594135 46.40817375 -12.05860036 46.40432992 -13.53125 46.3984375 C-14.56421204 46.40754654 -14.56421204 46.40754654 -15.61804199 46.4168396 C-18.62728554 46.37288888 -20.75650474 46.12863072 -23.43554688 44.71337891 C-25 43 -25 43 -25.5 39.1875 C-25.24900031 33.94546808 -22.63207777 30.63207777 -19 27 C-16.71463962 23.47471006 -16.74153725 20.32457221 -16.625 16.1875 C-16.25958431 10.22936621 -15.80757905 6.63083939 -12 2 C-7.76966921 -0.94283881 -4.91678799 -1.67380017 0 0 Z " fill="#57247B" transform="translate(275,94)"/>
<path d="M0 0 C1.765625 2.46875 1.765625 2.46875 3.25 5.5 C3.75015625 6.5003125 4.2503125 7.500625 4.765625 8.53125 C5.17296875 9.3459375 5.5803125 10.160625 6 11 C6.33 11.33 6.66 11.66 7 12 C7.33 9.69 7.66 7.38 8 5 C7.34 5 6.68 5 6 5 C6 4.34 6 3.68 6 3 C8.31 3 10.62 3 13 3 C12.67 3.66 12.34 4.32 12 5 C12 7.31 12 9.62 12 12 C14.64 7.71 17.28 3.42 20 -1 C27.91317365 0.13045338 27.91317365 0.13045338 30.8125 2.8125 C31.37582031 3.31394531 31.93914062 3.81539063 32.51953125 4.33203125 C36.38661878 8.68888184 36.41832771 12.79201793 36.328125 18.4296875 C36 21 36 21 34.125 23.625 C30.04614107 26.26426166 26.70393795 26.16117062 21.95703125 26.16796875 C21.1552092 26.17129715 20.35338715 26.17462555 19.52726746 26.17805481 C17.82669651 26.18312356 16.1261156 26.18546315 14.42553711 26.18530273 C11.84016149 26.18747674 9.25522125 26.20559801 6.66992188 26.22460938 C5.01562645 26.22754592 3.36132901 26.22952897 1.70703125 26.23046875 C0.55664116 26.24124702 0.55664116 26.24124702 -0.61698914 26.25224304 C-6.03414947 26.22952982 -11.55862547 25.96885042 -15.9375 22.4375 C-17.6207763 18.57586614 -17.71286022 15.13458929 -17 11 C-15.1967866 6.43987366 -12.64272585 3.08449332 -8.5 0.4375 C-4.75767613 -1.09952588 -3.69554077 -1.38873309 0 0 Z " fill="#532079" transform="translate(209,120)"/>
<path d="M0 0 C5.32072009 -0.06896757 10.63988201 -0.12867101 15.96069336 -0.16479492 C17.76966617 -0.17985755 19.5786026 -0.20031177 21.38745117 -0.22631836 C23.99146515 -0.2628132 26.5949952 -0.27975157 29.19921875 -0.29296875 C30.40731453 -0.31619453 30.40731453 -0.31619453 31.63981628 -0.33988953 C36.25715004 -0.34126543 39.26021386 -0.00846192 43 3 C45.4915904 6.7373856 45.45793285 8.57331583 45 13 C43.20437595 15.75329021 41.94745078 17.52627461 39 19 C36.7927077 19.07092842 34.58332548 19.08415025 32.375 19.0625 C31.18648437 19.05347656 29.99796875 19.04445312 28.7734375 19.03515625 C27.85820313 19.02355469 26.94296875 19.01195312 26 19 C26.99359626 21.08204856 26.99359626 21.08204856 29 23 C31.65876555 23.61602 33.99844838 24.00896456 36.6875 24.25 C37.38939453 24.32734375 38.09128906 24.4046875 38.81445312 24.484375 C40.54129418 24.67233049 42.27050053 24.83832477 44 25 C44 27.31 44 29.62 44 32 C36.2935023 32.46943133 29.54728404 32.52634647 23 28 C19 23.2195122 19 23.2195122 19 19 C15.04 19 11.08 19 7 19 C7 23.29 7 27.58 7 32 C4.69 32 2.38 32 0 32 C0 21.44 0 10.88 0 0 Z " fill="#58247B" transform="translate(34,177)"/>
<path d="M0 0 C1.26092972 0.00212242 1.26092972 0.00212242 2.54733276 0.00428772 C5.23732025 0.00989388 7.92722509 0.02244739 10.6171875 0.03515625 C12.43880088 0.04017046 14.26041557 0.0447335 16.08203125 0.04882812 C20.55211527 0.05986531 25.02213736 0.07713405 29.4921875 0.09765625 C29.4921875 2.40765625 29.4921875 4.71765625 29.4921875 7.09765625 C10.6821875 7.59265625 10.6821875 7.59265625 -8.5078125 8.09765625 C-8.5078125 9.41765625 -8.5078125 10.73765625 -8.5078125 12.09765625 C-7.29049438 12.11953003 -7.29049438 12.11953003 -6.04858398 12.1418457 C-2.34703057 12.21663257 1.35365129 12.31319386 5.0546875 12.41015625 C6.96991211 12.44399414 6.96991211 12.44399414 8.92382812 12.47851562 C21.07519156 12.82569744 21.07519156 12.82569744 26.4921875 16.09765625 C28.49006838 19.09447757 28.85153978 20.03850771 28.9921875 23.47265625 C29.04375 24.22289062 29.0953125 24.973125 29.1484375 25.74609375 C28.13369233 29.38226396 25.67116961 31.29539542 22.4921875 33.09765625 C19.43404289 33.75141681 16.49069169 33.68374059 13.375 33.5859375 C12.51784393 33.57886276 11.66068787 33.57178802 10.77755737 33.5644989 C8.05652279 33.53664838 5.33759343 33.47393081 2.6171875 33.41015625 C0.76565485 33.38506115 -1.08591026 33.3622501 -2.9375 33.34179688 C-7.46174096 33.28685276 -11.98442059 33.20064787 -16.5078125 33.09765625 C-16.5078125 30.78765625 -16.5078125 28.47765625 -16.5078125 26.09765625 C-3.9678125 25.76765625 8.5721875 25.43765625 21.4921875 25.09765625 C21.8221875 23.77765625 22.1521875 22.45765625 22.4921875 21.09765625 C21.5542334 21.09354736 20.6162793 21.08943848 19.64990234 21.08520508 C16.14914216 21.05813623 12.65011025 21.00896284 9.14990234 20.94506836 C7.63894346 20.92195958 6.12782512 20.90750937 4.61669922 20.90209961 C2.43617215 20.89275655 0.25812786 20.85165994 -1.921875 20.8046875 C-3.2310791 20.78897705 -4.5402832 20.7732666 -5.88916016 20.75708008 C-10.57883746 19.90248432 -12.19424958 18.46371561 -15.5078125 15.09765625 C-16.53842921 11.66755244 -16.31302708 8.57712363 -15.5078125 5.09765625 C-10.77630816 -0.0073879 -6.61197274 -0.04157275 0 0 Z " fill="#5A267C" transform="translate(377.5078125,175.90234375)"/>
<path d="M0 0 C14.52 0 29.04 0 44 0 C44 1.98 44 3.96 44 6 C31.46 6 18.92 6 6 6 C6 8.31 6 10.62 6 13 C14.25 13 22.5 13 31 13 C31 14.98 31 16.96 31 19 C22.75 19 14.5 19 6 19 C6 20.98 6 22.96 6 25 C18.87 25 31.74 25 45 25 C45 27.31 45 29.62 45 32 C30.15 32 15.3 32 0 32 C0 21.44 0 10.88 0 0 Z " fill="#552279" transform="translate(89,177)"/>
<path d="M0 0 C14.85 0 29.7 0 45 0 C45 1.98 45 3.96 45 6 C32.13 6 19.26 6 6 6 C6 8.31 6 10.62 6 13 C14.58 13 23.16 13 32 13 C32 14.98 32 16.96 32 19 C23.42 19 14.84 19 6 19 C6 21.31 6 23.62 6 26 C18.87 26 31.74 26 45 26 C45 27.98 45 29.96 45 32 C30.15 32 15.3 32 0 32 C0 21.44 0 10.88 0 0 Z " fill="#511E78" transform="translate(307,177)"/>
<path d="M0 0 C3.3086507 2.12566945 6.22368442 4.44736883 8 8 C8.58067591 14.63310562 8.58808968 21.20093956 5 27 C2.04753502 30.48182108 -0.54345174 32.70274525 -5.0625 33.625 C-10.23756353 32.52392265 -13.07270685 30.17791293 -16.3125 26.0625 C-19.01323365 20.79777871 -19.30749497 14.81990481 -19 9 C-15.37146761 0.72694614 -8.56309901 -2.86426016 0 0 Z " fill="#F7B6C4" transform="translate(224,88)"/>
<path d="M0 0 C1.65 2.97 3.3 5.94 5 9 C5.33 7.35 5.66 5.7 6 4 C7.32 4.33 8.64 4.66 10 5 C10 6.65 10 8.3 10 10 C11.98 6.7 13.96 3.4 16 0 C21.37593935 1.07518787 23.08904541 2.34977572 27 6 C29.44794742 9.67192113 29.71435887 12.73106028 29 17 C26.79259319 19.96858157 25.51402627 20.82865791 22 22 C17.88804956 22.22664835 13.77595528 22.22825255 9.65820312 22.24023438 C7.63890274 22.24993322 5.62062388 22.28096756 3.6015625 22.3125 C1.6834375 22.32023437 1.6834375 22.32023437 -0.2734375 22.328125 C-2.02793213 22.34214355 -2.02793213 22.34214355 -3.81787109 22.35644531 C-7.32590879 21.96349341 -9.19317412 21.10240024 -12 19 C-13.5547669 15.89046621 -13.28644437 13.43733239 -13 10 C-10.28864667 4.68157617 -6.32359219 0 0 0 Z " fill="#58247B" transform="translate(157,118)"/>
<path d="M0 0 C1.29550781 0.00322266 2.59101562 0.00644531 3.92578125 0.00976562 C5.28906317 0.01812027 6.65234442 0.02658521 8.015625 0.03515625 C9.39452965 0.04017457 10.77343604 0.0447369 12.15234375 0.04882812 C15.52348159 0.06061532 18.89453128 0.0770699 22.265625 0.09765625 C22.265625 2.40765625 22.265625 4.71765625 22.265625 7.09765625 C20.94957275 7.1116748 20.94957275 7.1116748 19.60693359 7.12597656 C16.32995078 7.17017228 13.05424357 7.23186277 9.77783203 7.30517578 C8.36389052 7.33328017 6.94979498 7.35454692 5.53564453 7.36865234 C3.49432116 7.39023081 1.45482901 7.43694711 -0.5859375 7.48828125 C-2.42406006 7.51970215 -2.42406006 7.51970215 -4.29931641 7.55175781 C-8.60557308 8.23610678 -11.64132349 10.00460474 -14.734375 13.09765625 C-15.15184108 15.97130416 -15.15184108 15.97130416 -14.734375 19.09765625 C-12.8672759 21.40041181 -11.37789759 22.77589496 -8.734375 24.09765625 C-6.41164341 24.25286182 -4.08478187 24.34784792 -1.7578125 24.4140625 C-1.072565 24.4348436 -0.3873175 24.45562469 0.31869507 24.47703552 C2.50923569 24.5424581 4.69989689 24.60138179 6.890625 24.66015625 C8.3750125 24.70334843 9.85938778 24.74696295 11.34375 24.79101562 C14.98424584 24.89813178 18.62487751 24.99941987 22.265625 25.09765625 C22.265625 27.40765625 22.265625 29.71765625 22.265625 32.09765625 C18.15811261 32.19751162 14.05108291 32.26958228 9.94262695 32.31738281 C8.54894686 32.3373362 7.1553487 32.36450944 5.76196289 32.39941406 C-9.78797246 32.77881686 -9.78797246 32.77881686 -16.734375 28.09765625 C-21.2815988 23.32307126 -22.10048514 20.06819985 -22.0078125 13.63671875 C-21.59802992 9.83159479 -20.31981418 7.88197537 -17.734375 5.09765625 C-11.91432076 0.89803475 -7.04328117 -0.03089158 0 0 Z " fill="#59257B" transform="translate(547.734375,176.90234375)"/>
<path d="M0 0 C2.31 0 4.62 0 7 0 C7 10.56 7 21.12 7 32 C-6.09649992 25.51411433 -19.05773554 18.78790094 -32 12 C-32 18.6 -32 25.2 -32 32 C-33.98 32 -35.96 32 -38 32 C-38 21.77 -38 11.54 -38 1 C-33.23232055 2.58922648 -29.04110093 4.38150476 -24.6328125 6.6953125 C-23.95322479 7.04761932 -23.27363708 7.39992615 -22.57345581 7.76290894 C-20.42182111 8.8795268 -18.27338956 10.00215335 -16.125 11.125 C-14.65906228 11.88711919 -13.19291844 12.64884204 -11.7265625 13.41015625 C-8.14823449 15.26813425 -4.57430871 17.13421935 -1 19 C-0.67 12.73 -0.34 6.46 0 0 Z " fill="#55227A" transform="translate(509,177)"/>
<path d="M0 0 C3.66688272 1.46675309 5.83551404 2.41301329 8.84765625 4.63671875 C9.53537109 5.13107422 10.22308594 5.62542969 10.93164062 6.13476562 C12.36035441 7.17585404 13.78480856 8.22281163 15.20507812 9.27539062 C16.2347168 10.01112305 16.2347168 10.01112305 17.28515625 10.76171875 C17.90269775 11.21506592 18.52023926 11.66841309 19.15649414 12.13549805 C20.96027311 13.17240579 20.96027311 13.17240579 22.96606445 12.81005859 C25.30643799 11.87795448 27.1841702 10.70932107 29.2578125 9.27734375 C30.04800781 8.73916016 30.83820313 8.20097656 31.65234375 7.64648438 C32.46832031 7.08251953 33.28429687 6.51855469 34.125 5.9375 C35.74975096 4.81746432 37.37722505 3.70136531 39.0078125 2.58984375 C39.72598145 2.09347412 40.44415039 1.59710449 41.18408203 1.08569336 C43 0 43 0 45 0 C45 10.23 45 20.46 45 31 C43.02 31 41.04 31 39 31 C39 24.73 39 18.46 39 12 C34.23389066 15.32220936 34.23389066 15.32220936 29.48730469 18.67211914 C28.88821289 19.08067139 28.28912109 19.48922363 27.671875 19.91015625 C27.0644043 20.33433838 26.45693359 20.75852051 25.83105469 21.19555664 C23.44532986 22.24368508 22.40421075 21.91566152 20 21 C15.89236151 18.48327331 11.9766324 15.72312871 8 13 C7.67 18.94 7.34 24.88 7 31 C4.69 31 2.38 31 0 31 C0 20.77 0 10.54 0 0 Z " fill="#552279" transform="translate(143,178)"/>
<path d="M0 0 C0.66209473 -0.00095673 1.32418945 -0.00191345 2.00634766 -0.00289917 C3.40852961 -0.00358076 4.8107147 -0.00172792 6.21289062 0.00244141 C8.36595713 0.00779004 10.51881502 0.0024958 12.671875 -0.00390625 C14.03125046 -0.00324546 15.3906258 -0.00196429 16.75 0 C18.61785156 0.00169189 18.61785156 0.00169189 20.5234375 0.00341797 C23.375 0.1328125 23.375 0.1328125 24.375 1.1328125 C24.47481214 3.8101263 24.51379875 6.45585425 24.5 9.1328125 C24.50580078 10.25816406 24.50580078 10.25816406 24.51171875 11.40625 C24.50161053 17.00620197 24.50161053 17.00620197 23.375 18.1328125 C21.15644736 18.22064792 18.93511504 18.23975859 16.71484375 18.23046875 C15.71814415 18.22834633 15.71814415 18.22834633 14.7013092 18.22618103 C12.57166101 18.22056768 10.44211661 18.20801304 8.3125 18.1953125 C6.87174631 18.19029921 5.43099097 18.18573601 3.99023438 18.18164062 C0.45178898 18.17059395 -3.08659539 18.15332042 -6.625 18.1328125 C-8.14991129 15.08298992 -7.76861434 11.91158711 -7.75 8.5703125 C-7.75386719 7.87228516 -7.75773438 7.17425781 -7.76171875 6.45507812 C-7.74823459 -0.49600868 -6.72397334 0.00609056 0 0 Z " fill="#F8B7C4" transform="translate(211.625,183.8671875)"/>
<path d="M0 0 C14.85 0 29.7 0 45 0 C45 2.31 45 4.62 45 7 C38.73 7 32.46 7 26 7 C26 15.58 26 24.16 26 33 C23.69 33 21.38 33 19 33 C19 24.42 19 15.84 19 7 C12.73 7 6.46 7 0 7 C0 4.69 0 2.38 0 0 Z " fill="#5B277C" transform="translate(252,176)"/>
<path d="M0 0 C2.31 0 4.62 0 7 0 C7.061875 1.0725 7.12375 2.145 7.1875 3.25 C7.66207767 7.10805812 7.66207767 7.10805812 10.4375 9.375 C16.29381517 13.08876084 22.2000974 12.51334057 29 12 C32.22672034 11.24837523 34.63796531 10.36203469 37 8 C38.24228159 5.24171376 38.59354076 3.04844426 39 0 C40.98 0 42.96 0 45 0 C45.59920084 4.89347355 45.74133962 8.78576903 42.625 12.8125 C38.84269913 16.69409755 34.16215132 18.56952433 29 20 C28.01 20 27.02 20 26 20 C26 24.29 26 28.58 26 33 C23.69 33 21.38 33 19 33 C19 28.38 19 23.76 19 19 C16.69 19 14.38 19 12 19 C7.3768643 17.0004229 3.82469631 14.17456747 0.9375 10.0625 C-0.13230817 6.5677933 -0.21809205 3.63486756 0 0 Z " fill="#59257B" transform="translate(416,176)"/>
<path d="M0 0 C3.43952148 2.09362177 5.78028175 4.11907831 7 8 C7.69136352 13.99181713 6.20687294 18.06208147 3 23 C1.1875 25.0625 1.1875 25.0625 -1 26 C-4.43331008 26.06242382 -6.86742096 25.99643782 -9.52734375 23.65625 C-13.84587437 18.54911813 -14.33559072 15.21114346 -14.29296875 8.70703125 C-13.90428228 5.11556825 -12.68553733 3.36959176 -10 1 C-6.79386153 -0.60306924 -3.47860003 -0.48740461 0 0 Z " fill="#F6B4C2" transform="translate(169,94)"/>
<path d="M0 0 C3.3086507 2.12566945 6.22368442 4.44736883 8 8 C8.58067591 14.63310562 8.58808968 21.20093956 5 27 C2.04753502 30.48182108 -0.54345174 32.70274525 -5.0625 33.625 C-10.23756353 32.52392265 -13.07270685 30.17791293 -16.3125 26.0625 C-19.01323365 20.79777871 -19.30749497 14.81990481 -19 9 C-15.37146761 0.72694614 -8.56309901 -2.86426016 0 0 Z M-14 8 C-15.41577477 9.18424326 -15.41577477 9.18424326 -15.0625 12.5625 C-15.041875 13.696875 -15.02125 14.83125 -15 16 C-15.66 16 -16.32 16 -17 16 C-16.44508818 21.09612893 -15.62258472 25.00285668 -11.8125 28.625 C-8.98201248 30.73756761 -8.06643991 30.99656345 -4.375 31.1875 C0.42548465 29.49844059 2.8008214 27.01680038 5.375 22.6875 C6.24490317 18.94691638 6.10040822 15.68598279 5 12 C3.10473223 9.51565849 3.10473223 9.51565849 1 8 C0.01 8.33 -0.98 8.66 -2 9 C-6.28199862 9.13593646 -9.87080767 9.15617385 -14 8 Z " fill="#5A267C" transform="translate(224,88)"/>
<path d="M0 0 C3.18536768 2.67860464 5.45087973 5.14115535 7 9 C7.1953125 11.578125 7.1953125 11.578125 7.125 14.25 C7.10695313 15.14203125 7.08890625 16.0340625 7.0703125 16.953125 C7.04710937 17.62859375 7.02390625 18.3040625 7 19 C6.01 19 5.02 19 4 19 C4.33 17.02 4.66 15.04 5 13 C3.68 12.67 2.36 12.34 1 12 C1.33 11.01 1.66 10.02 2 9 C1.24074219 9.34933594 0.48148437 9.69867188 -0.30078125 10.05859375 C-1.29464844 10.51363281 -2.28851563 10.96867187 -3.3125 11.4375 C-4.29863281 11.88996094 -5.28476562 12.34242187 -6.30078125 12.80859375 C-9 14 -9 14 -12 15 C-13.37195574 16.29355827 -14.71182656 17.62298702 -16 19 C-16.50013765 12.09532193 -16.32007341 7.57062097 -12 2 C-7.76966921 -0.94283881 -4.91678799 -1.67380017 0 0 Z " fill="#5D297D" transform="translate(275,94)"/>
<path d="M0 0 C0 0.99 0 1.98 0 3 C0.99 3.33 1.98 3.66 3 4 C1.91290639 9.83077481 0.97536538 13.29740251 -4 17 C-6.5 17.625 -6.5 17.625 -9 17 C-12.30812219 14.44372376 -13.80663807 12.95973545 -14.640625 8.8203125 C-14.75921875 7.88960938 -14.8778125 6.95890625 -15 6 C-12.87717331 4.99539469 -10.75166979 3.99644398 -8.625 3 C-7.44164062 2.443125 -6.25828125 1.88625 -5.0390625 1.3125 C-2 0 -2 0 0 0 Z " fill="#F5B5C3" transform="translate(277,103)"/>
<path d="M0 0 C3.43952148 2.09362177 5.78028175 4.11907831 7 8 C7.69136352 13.99181713 6.20687294 18.06208147 3 23 C1.1875 25.0625 1.1875 25.0625 -1 26 C-4.43331008 26.06242382 -6.86742096 25.99643782 -9.52734375 23.65625 C-13.84587437 18.54911813 -14.33559072 15.21114346 -14.29296875 8.70703125 C-13.90428228 5.11556825 -12.68553733 3.36959176 -10 1 C-6.79386153 -0.60306924 -3.47860003 -0.48740461 0 0 Z M-1 7 C-2.87379605 7.07033769 -4.75001102 7.0843022 -6.625 7.0625 C-7.62789062 7.05347656 -8.63078125 7.04445313 -9.6640625 7.03515625 C-10.43492187 7.02355469 -11.20578125 7.01195313 -12 7 C-12.99942106 11.79070311 -13.66687223 15.59934302 -11.1875 20 C-9.33390552 23.02438812 -9.33390552 23.02438812 -7 24 C-3.00609564 24.53252058 -1.48258758 24.35389756 1.8125 21.9375 C4.44317618 18.4048777 5 16.39094984 5 12 C3.69280737 8.63121229 3.69280737 8.63121229 2 6 C0.7763932 5.9254644 0.7763932 5.9254644 -1 7 Z " fill="#612D7F" transform="translate(169,94)"/>
<path d="M0 0 C4.09341499 -0.02469575 8.18680121 -0.04285793 12.28027344 -0.05493164 C13.67318477 -0.0599643 15.0660908 -0.06679098 16.45898438 -0.07543945 C18.45961246 -0.08755152 20.46027888 -0.09270412 22.4609375 -0.09765625 C23.66540527 -0.10289307 24.86987305 -0.10812988 26.11083984 -0.11352539 C29 0 29 0 31 1 C31 2.65 31 4.3 31 6 C20.77 6 10.54 6 0 6 C0 4.02 0 2.04 0 0 Z " fill="#F4B0BF" transform="translate(41,183)"/>
<path d="M0 0 C3.75 0.3125 3.75 0.3125 6.6875 1.875 C8.75 4.3125 8.75 4.3125 9.4375 7.75 C8.75 11.3125 8.75 11.3125 6.0625 14.25 C2.78783733 16.28894091 1.48201812 17.03817019 -2.25 16.3125 C-4.25 14.3125 -4.25 14.3125 -4.48046875 11.30859375 C-4.46628906 10.13425781 -4.45210938 8.95992187 -4.4375 7.75 C-4.42783203 5.98462891 -4.42783203 5.98462891 -4.41796875 4.18359375 C-4.1804238 0.12323231 -4.11371069 0.3955491 0 0 Z " fill="#F8BAC6" transform="translate(352.25,99.6875)"/>
<path d="M0 0 C2 3 2 3 1.5 6.75 C0.18472889 11.43132677 -2.48812471 14.70761692 -6 18 C-8.86608129 19.43304064 -10.81300783 19.30644155 -14 19 C-19.34988613 16.32505694 -21.59212 13.29733599 -24 8 C-23.67 7.01 -23.34 6.02 -23 5 C-21 8 -21 8 -19.625 10.5 C-17.89147575 13.16696039 -16.84648179 14.5767591 -14 16 C-10.10561651 15.93045744 -7.81645159 15.61785526 -4.6875 13.25 C-1.5827716 9.11036213 -0.70780997 5.07263812 0 0 Z " fill="#693483" transform="translate(230,102)"/>
<path d="M0 0 C1.43739513 -0.02712066 2.87493863 -0.04645067 4.3125 -0.0625 C5.51326172 -0.07990234 5.51326172 -0.07990234 6.73828125 -0.09765625 C9 0 9 0 12 1 C12 1.66 12 2.32 12 3 C10.34928604 4.02611949 8.68029994 5.02308143 7 6 C5.24850835 7.58245275 5.24850835 7.58245275 4 9 C1.66666667 6.66666667 -0.66666667 4.33333333 -3 2 C-2.01 2 -1.02 2 0 2 C0 1.34 0 0.68 0 0 Z " fill="#EDADC0" transform="translate(266,120)"/>
<path d="M0 0 C1.18331753 1.7749763 2.32688612 3.57947994 3.375 5.4375 C5.00764504 8.01205564 6.77587834 9.92926604 9 12 C8.01 12.495 8.01 12.495 7 13 C2.94769868 10.15243691 0.7809063 7.65014422 -1 3 C-0.67 2.01 -0.34 1.02 0 0 Z " fill="#723C86" transform="translate(207,107)"/>
</svg>
